<?xml version="1.0" encoding="iso-8859-1"?>
<!-- Generator: Adobe Illustrator 16.0.0, SVG Export Plug-In . SVG Version: 6.00 Build 0)  -->
<!DOCTYPE svg PUBLIC "-//W3C//DTD SVG 1.1//EN" "http://www.w3.org/Graphics/SVG/1.1/DTD/svg11.dtd">
<svg version="1.1" xmlns="http://www.w3.org/2000/svg" xmlns:xlink="http://www.w3.org/1999/xlink" preserveAspectRatio="xMidYMid meet" viewBox="620 283 141 141"><g data-item-type="text" data-item="Business" id="logo__item--business" class="logo__item">
    <g class="logo__item__inner" transform="translate(648.484375 415.82871607730266) scale(30 30) rotate(0 0 0)">
        <text data-part-id="logo__item--business" dy="0" dominant-baseline="auto" alignment-baseline="auto" font-family="Montserrat" font-size="0.4px" fill="#FFB602" letter-spacing="0" font-weight="bold" font-style="normal" data-font-family="Montserrat" data-font-weight="bold" data-font-style="normal" data-ttf-url="/builder_assets/fontsttf/font-montserrat-bold-normal.ttf">twigworksimage</text>
    </g>
</g><g data-item-type="image" data-item="Image" data-logo-item="" id="logo__item--logo_0" class="logo__item">
    <g class="logo__item__inner" transform="translate(618.9716881061422 263) scale(0.08711433756805807 0.08711433756805807) rotate(0 0 0)">

        <g>
            <g>
                <g>
                    <path fill="#FFB602" d="M856.4,563.4l103.4,102.8l0.8-241.3c-58.2-31.7-125-49.6-196-49.4c-30,0.1-59.3,3.5-87.5,9.8l177.7,178.2     L856.4,563.4z" data-part-id="logo__item--logo_0__0"></path>
                </g>
                <g>
                    <path fill="#FFB602" d="M545.5,693.3l101.4-102L405.3,592c-30.7,57.5-48,123.3-47.8,193c0.1,30.5,3.6,60.2,10.1,88.8l177.9-179.6     V693.3z" data-part-id="logo__item--logo_0__1"></path>
                </g>
                <g>
                    <path fill="#00A8DE" d="M1164,693L986.3,873v1.3L884.4,976.8l242.1-1.3c30.7-57.5,48-123.2,47.8-192.9     C1174.1,751.8,1170.5,721.8,1164,693z" data-part-id="logo__item--logo_0__2"></path>
                </g>
                <g>
                    <path fill="#FF6D81" d="M674,564l143.2-0.5l-170-170.4c-94.5,28.6-174.4,90.6-226.2,172.2l252.5-0.8L674,564z" data-part-id="logo__item--logo_0__3"></path>
                </g>
                <g>
                    <path fill="#FFB602" d="M746.5,1004l-32.5,0.1l169.8,170.6c94.8-28.6,175-90.6,226.9-172.4l-364.2,2V1004z" data-part-id="logo__item--logo_0__4"></path>
                </g>
                <g>
                    <path fill="#FF6D81" d="M987.3,440.8l-1.2,351.7l0.1,42.6L1156,663C1127.4,570.5,1066.9,492.2,987.3,440.8z" data-part-id="logo__item--logo_0__5"></path>
                </g>
                <g>
                    <path fill="#00A8DE" d="M545.6,732L375.5,903.8c28.9,93.9,90.7,173.4,172,224.9L547,876.7l-1-1L545.6,732z" data-part-id="logo__item--logo_0__6"></path>
                </g>
                <g>
                    <path fill="#FF6D81" d="M675.4,1004.2L573.8,903.3l0.4,241.1c57.5,30.6,123.2,47.9,192.9,47.7c29.8-0.1,58.9-3.5,86.8-9.6     l-177.4-178.3H675.4z" data-part-id="logo__item--logo_0__7"></path>
                </g>
            </g>
            <g>
                <path d="M828.7,642.8c1.5,4.4,2.5,9,2.5,13.8c0,23.4-19,42.4-42.4,42.4c-23.4,0-42.4-19-42.4-42.4c0-8.1,2.4-15.6,6.3-22    c-40.8,12.1-70.5,49.9-70.5,94.6c0,54.6,44.2,98.8,98.8,98.8c54.5,0,98.8-44.2,98.8-98.8C879.7,692,859.1,659.6,828.7,642.8z     M736.5,783.9c-8,2.5-17.3-4.3-20.7-15.2c-3.4-10.9,0.3-21.8,8.3-24.3c8-2.5,17.3,4.3,20.7,15.2    C748.2,770.5,744.5,781.4,736.5,783.9z" data-part-id="logo__item--logo_0__8"></path>
            </g>
            <g>
                <g>
                    <path fill="#5C5C5F" d="M119.2,267.1c-27.6,0-50,22.4-50,50v519.2c0,11,8.9,20,20,20s20-9,20-20V317.1c0-5.5,4.5-10,10-10h637.5     c11,0,20-8.9,20-20s-9-20-20-20H119.2z" data-part-id="logo__item--logo_0__9"></path>
                </g>
            </g>
            <g>
                <g>
                    <path fill="#5C5C5F" d="M1406.7,737.1v519.2c0,5.5-4.5,10-10,10H759.2c-11,0-20,9-20,20s8.9,20,20,20h637.5c27.6,0,50-22.4,50-50     V737.1c0-11-8.9-20-20-20S1406.7,726.1,1406.7,737.1z" data-part-id="logo__item--logo_0__10"></path>
                </g>
            </g>
        </g>

    </g>
</g></svg>